<svg width="1405" height="740" viewBox="0 0 1405 740" fill="none" xmlns="http://www.w3.org/2000/svg">
<g clip-path="url(#clip0_1_2)">
<rect width="1405" height="740" fill="url(#paint0_linear_1_2)"/>
<path d="M399.666 619.03C400.139 618.95 400.574 619.019 400.902 619.172C401.185 619.305 401.512 619.551 401.79 620.104L420.443 657.215C423.207 662.714 429.238 665.763 435.305 664.729L475.029 657.955C476.909 657.635 478.128 659.879 476.835 661.282L448.23 692.321C444.281 696.606 443.399 702.89 446.016 708.096L465.308 746.477C466.183 748.218 464.304 750.056 462.582 749.142L427.337 730.415C421.716 727.429 414.787 728.61 410.473 733.291L383.427 762.64C382.106 764.073 379.723 762.962 379.972 761.029L385.453 718.424C386.196 712.644 383.282 707.008 378.136 704.274L340.862 684.469C339.177 683.573 339.583 681.052 341.464 680.731L381.187 673.957C387.254 672.923 391.934 668.047 392.719 661.943L398.019 620.747C398.098 620.133 398.324 619.793 398.547 619.574C398.806 619.321 399.194 619.111 399.666 619.03Z" stroke="#D2C1B6" stroke-width="12"/>
<path d="M94.8143 296.848C100.922 291.932 110.053 295.637 111.01 303.418L125.754 423.43C126.684 431 119.138 436.783 112.07 433.916L3.13245 389.72C-3.93508 386.853 -5.31946 377.446 0.622143 372.664L94.8143 296.848Z" stroke="#D2C1B6" stroke-width="16"/>
<path d="M844.073 30.7369C845.583 18.996 861.38 16.3022 866.696 26.879L870.39 34.2269C875.128 43.6539 885.468 48.8813 895.868 47.1078L905.717 45.4283C917.003 43.5042 924.317 56.9714 916.558 65.3901L908.07 74.6004C901.3 81.9462 899.789 92.7171 904.275 101.643L909.403 111.847C914.656 122.297 903.38 133.32 893.051 127.833L886.558 124.383C876.921 119.263 865.044 121.288 857.649 129.313L852.665 134.719C844.739 143.32 830.447 136.657 831.939 125.056L833.396 113.729C834.671 103.821 829.675 94.1601 820.853 89.4729L809.793 83.5962C799.683 78.2245 802.12 63.0944 813.405 61.1698L823.254 59.4903C833.655 57.7166 841.677 49.358 843.024 38.8936L844.073 30.7369Z" stroke="#D2C1B6" stroke-width="12"/>
<rect x="1232.87" y="600.148" width="130.431" height="135.029" rx="22" transform="rotate(-15.6942 1232.87 600.148)" stroke="#D2C1B6" stroke-width="16"/>
</g>
<defs>
<linearGradient id="paint0_linear_1_2" x1="151.233" y1="44.8048" x2="2062.15" y2="2086.11" gradientUnits="userSpaceOnUse">
<stop stop-color="#1B3C53"/>
<stop offset="1" stop-color="#DDC3C3" stop-opacity="0.7"/>
</linearGradient>
<clipPath id="clip0_1_2">
<rect width="1405" height="740" fill="white"/>
</clipPath>
</defs>
</svg>
