<svg width="49" height="48" viewBox="0 0 49 48" fill="none" xmlns="http://www.w3.org/2000/svg">
<path d="M45.081 0H4.18687C1.95234 0 0 1.575 0 3.73821V43.8868C0 46.0618 1.95234 48 4.18687 48H45.069C47.3156 48 48.9999 46.0489 48.9999 43.8868V3.73821C49.0131 1.575 47.3156 0 45.081 0ZM15.1889 40.0104H8.16921V18.63H15.1889V40.0104ZM11.9219 15.3793H11.8715C9.62498 15.3793 8.1703 13.7411 8.1703 11.6904C8.1703 9.60214 9.66327 8.0025 11.9601 8.0025C14.257 8.0025 15.6625 9.59036 15.7128 11.6904C15.7117 13.7411 14.257 15.3793 11.9219 15.3793ZM40.8438 40.0104H33.8242V28.32C33.8242 25.5193 32.8026 23.6057 30.2629 23.6057C28.3226 23.6057 27.1742 24.8914 26.6634 26.1439C26.472 26.5939 26.4206 27.2068 26.4206 27.8325V40.0104H19.4009V18.63H26.4206V21.6054C27.4421 20.1804 29.0379 18.1296 32.7512 18.1296C37.3592 18.1296 40.8449 21.105 40.8449 27.5196L40.8438 40.0104Z" fill="#1B3C53"/>
</svg>
