<svg width="47" height="48" viewBox="0 0 47 48" fill="none" xmlns="http://www.w3.org/2000/svg">
<path fill-rule="evenodd" clip-rule="evenodd" d="M23.5 0C10.5162 0 0 11.0117 0 24.6071C0 35.4957 6.72687 44.6926 16.0681 47.953C17.2431 48.1683 17.6838 47.4301 17.6838 46.7842C17.6838 46.1997 17.6544 44.2619 17.6544 42.2011C11.75 43.3392 10.2225 40.6939 9.7525 39.3098C9.48812 38.6023 8.3425 36.4184 7.34375 35.834C6.52125 35.3726 5.34625 34.2346 7.31437 34.2038C9.165 34.173 10.4869 35.9878 10.9275 36.726C13.0425 40.4478 16.4206 39.402 17.7719 38.7561C17.9775 37.1567 18.5944 36.0801 19.27 35.4649C14.0413 34.8497 8.5775 32.7274 8.5775 23.3152C8.5775 20.6392 9.48812 18.4245 10.9862 16.702C10.7513 16.0869 9.92875 13.5646 11.2212 10.1812C11.2212 10.1812 13.1894 9.53523 17.6838 12.7034C19.5637 12.1497 21.5613 11.8729 23.5588 11.8729C25.5563 11.8729 27.5538 12.1497 29.4338 12.7034C33.9281 9.50447 35.8963 10.1812 35.8963 10.1812C37.1888 13.5646 36.3662 16.0869 36.1313 16.702C37.6294 18.4245 38.54 20.6084 38.54 23.3152C38.54 32.7581 33.0469 34.8497 27.8181 35.4649C28.67 36.2339 29.4044 37.7103 29.4044 40.0172C29.4044 43.3084 29.375 45.9537 29.375 46.7842C29.375 47.4301 29.8156 48.1991 30.9906 47.953C35.6558 46.3039 39.7096 43.1644 42.5815 38.9764C45.4534 34.7884 46.9987 29.7629 47 24.6071C47 11.0117 36.4837 0 23.5 0Z" fill="#1B3C53"/>
</svg>
