<svg width="51" height="52" viewBox="0 0 51 52" fill="none" xmlns="http://www.w3.org/2000/svg">
<path d="M41.058 12.3196C40.7353 12.1529 40.4211 11.97 40.1167 11.7718C39.2314 11.1865 38.4197 10.4969 37.6992 9.71785C35.8962 7.65494 35.2229 5.56215 34.9748 4.09689H34.9848C34.7776 2.88066 34.8633 2.09375 34.8762 2.09375H26.6644V33.8472C26.6644 34.2736 26.6644 34.6949 26.6465 35.1113C26.6465 35.1631 26.6415 35.2109 26.6385 35.2667C26.6385 35.2896 26.6385 35.3135 26.6336 35.3374V35.3553C26.547 36.4946 26.1818 37.5952 25.57 38.5602C24.9583 39.5253 24.1188 40.3252 23.1253 40.8896C22.0899 41.4787 20.9189 41.7876 19.7276 41.7861C15.9016 41.7861 12.8008 38.6663 12.8008 34.8134C12.8008 30.9605 15.9016 27.8408 19.7276 27.8408C20.4519 27.8401 21.1717 27.9541 21.8603 28.1785L21.8702 19.8172C19.7798 19.5472 17.6561 19.7134 15.6331 20.3052C13.6101 20.897 11.7316 21.9016 10.1163 23.2558C8.70095 24.4855 7.51103 25.9529 6.60012 27.5918C6.25348 28.1894 4.94561 30.591 4.78723 34.4887C4.68762 36.701 5.35202 38.993 5.66878 39.9403V39.9603C5.86799 40.5181 6.63997 42.4216 7.89803 44.0263C8.91249 45.3135 10.111 46.4443 11.4551 47.3821V47.3622L11.475 47.3821C15.4504 50.0836 19.8581 49.9062 19.8581 49.9062C20.6211 49.8754 23.1771 49.9062 26.0797 48.5306C29.2991 47.0056 31.1319 44.7335 31.1319 44.7335C32.3028 43.3759 33.2339 41.8288 33.8851 40.1585C34.6282 38.2051 34.8762 35.8623 34.8762 34.926V18.0801C34.9758 18.1398 36.3026 19.0174 36.3026 19.0174C36.3026 19.0174 38.2141 20.2426 41.1964 21.0404C43.3361 21.6082 46.2188 21.7278 46.2188 21.7278V13.5757C45.2087 13.6853 43.1578 13.3665 41.058 12.3196Z" fill="#1B3C53"/>
</svg>
